<?xml version="1.0" encoding="utf-8"?>
<!-- Generator: Adobe Illustrator 24.1.2, SVG Export Plug-In . SVG Version: 6.00 Build 0)  -->
<svg version="1.1" id="Layer_1" xmlns="http://www.w3.org/2000/svg" xmlns:xlink="http://www.w3.org/1999/xlink" x="0px" y="0px"
	 viewBox="0 0 1920 1080" style="enable-background:new 0 0 1920 1080;" xml:space="preserve">
<style type="text/css">
	.st0{fill:#FFFFFF;}
</style>
<path class="st0" d="M1100.4,6.3c0,0-28.9,7.2-35.1,11.9c-6.2,4.6-39.2,23.2-49,35.1c-9.8,11.9-13.9,23.2-23.7,28.9
	c-9.8,5.7,8.3-1,16-3.1c7.7-2.1-30.5,34.6-38.7,36.6s27.9-5.7,34.6-11.9c6.7-6.2-22.1,40.3-25.8,45.9c-3.7,5.7-4.1,10.3-0.5,6.2
	s8.3-15,15.5-20.1c7.2-5.2-8.3,16.5-8.8,26.3c-0.5,9.8-2.6,19.6,2.1,22.7c4.6,3.1,25.3-34.6,6.7,3.6c-18.6,38.2,0.5,2.6,6.7,0
	s-1,3.1,0.5,10.8c1.5,7.7,1.3,25.7,3.6,12.9c2.1-11.4,5.3,20.8,7.2,16c8.3-20.6,5.2-9.3,7.2-17c2.1-7.7,3.6,20.6,1,23.7
	s6.7-7.2,7.2-16.5c0.5-9.3,1.5,22.7-4.6,26.8c-6.2,4.1,13.4-9.3,15-19.1c1.5-9.8,3.1,7.7,1.5,16.5c-1.5,8.8,5.2-2.1,6.2-9.8
	c1-7.7,7.7,15,10.8,19.1s13.4,23.7,21.2,27.9s38.2,21.2,50.1,27.4s20.1,8.8,40.8,1c20.6-7.7,50.6-28.9,59.9-37.2s9.3-17.5,12.4-4.6
	c3.1,12.9,5.2,0,5.2-4.6c0-4.6,4.1,1,6.2,4.6c2.1,3.6-5.2-11.9-5.7-17c-0.5-5.2,9.3-8.8,14.5-11.4s9.3-16.5,12.4-4.1
	s5.7,6.2,2.6-7.7c-3.1-13.9,7.2-6.7,7.2,2.1c0,8.8,4.1-11.4,2.6-17c-1.5-5.7-0.4-11-0.5-14.1c-0.1-3.1,1.2,0.5,1.4,4.9
	c0.3,4.4,3.4,28.1,4.8,29.3c1.4,1.2,3.4,9.7,3.1,3c-0.3-6.7-3.5-32.5-1.5-33.4c1.9-0.9,10.6,12.3,12.8,13.8
	c2.2,1.5-4.6-10.7-5.4-13.7s6.8,9.2,9.8,11.7c3,2.6-0.3-7.5-3.1-16.1c-2.8-8.6-2.6-11.2,2.7-4c5.3,7.2,6.1,3,0.9-7.1
	c-5.2-10.1-9.9-22.2-5.8-18.1s15.2,3.9,16.4,4.6c1.2,0.8-9.2-8.4-11.4-14.8c-2.2-6.5-1.2-4.6,4.4,0.9c5.5,5.5-3.6-7-4.5-13.5
	c-0.9-6.6,12.4-4.9,29.2,0.3c6.9,2.1-9.8-10.3-17.8-18.1c-12.5-12.1-19.2-28-23.4-37.9s-24.6-46.7-45.8-58.3s-31.2-19.9-43.1-24.3
	S1100.4,6.3,1100.4,6.3z"/>
<path class="st0" d="M993,414.1c-15,5.2-21.7,12.1-28.6,13.2c-7,1,8,2.6,21.2-1.5c13.2-4.1,10.1,4.9,1.3,6.2
	c-8.8,1.3-18.1,10.8-22.2,11.6c-4.1,0.8,0.4,4.9,13.9-2.1s-7.8,12.9-9.9,15.7s-7.3,20.9-11.4,26.8s-7.5,14.3-10.4,17.6
	c-2.9,3.3,5.6-1.5,7.7-4.2c2.1-2.7,2.5,2.9,2,6.3c-0.5,3.4,5.2-10.3,7.5-12.8c2.2-2.5,0.9,1.6,0.2,6.8s-2.3,19-0.3,23.6
	c2,4.6,4.6,13.9,6.4,17.1c1.8,3.2,3.6,5.7,4,8c0.5,2.3-8.9,11.8-12,12.9c-3.1,1.1,2.3,3.8,8.5-1.8s10.1-5.8,7.3-2.3
	c-2.8,3.5-10.3,11.1-8.3,10.5s11.6-14.9,16-12.5c3.2,1.7,0.2,24.1,2.9,23.3c2-0.6,2.3-11.4,4.3-3.4c1.9,8,2.8,13.3,5.1-0.1
	c2.3-13.4,2.2,6.3,3.7,8.9s2.1-9.4,3.1-11.9c1-2.5,4.6-4.4,7.2-3.6c2.6,0.8,4.1,0.9,4.4,3.9c0.3,3,2.3,3.7,2.1-1.3
	c-0.3-5,3.6-1.4,4.8,2.3c1.2,3.7,11.6,15,14.1,18.1c2.5,3.1,27.1,31.4,31.5,34.3c4.4,3,18.8,12.6,26.5,15
	c7.6,2.3,23.9,12.3,40.1,10.7c16.3-1.5,27.9-2.6,36.8-8.6s22.3-19.5,27.6-23.6s17-17.8,20.3-22.3c3.2-4.5,4.8-8.1,8-4.8
	s16.1-7.5,20.1-11.1c4-3.6,4-10.1,6.8-5.3c2.8,4.8,6.8,8.8,4.3-2.5c-2.6-11.2,12.6,4.9,14.2,7c1.5,2.1,7.4,6.3,3.7-0.4
	s-2.2-19.6-1.2-22.3c1-2.7-1.7-13.9-1-15.5s0.8-9.8,1.2-10.8c0.4-1,2.8-0.2,4.5,2.7c1.7,2.9,4.1,10.2,6.3,14.8
	c2.2,4.5,3.2-8.5,1.7-12.5c-1.5-4-7.5-16.1-2.7-14.6c4.8,1.5,5.9,2.3,0.8-9.7c-5.2-12-8-23.2-4.3-18.2s17.8,9.8,16.9,8.4
	s-14.7-13.5-16.6-17.5c-1.9-4-9.3-22.5-9.5-25.2c-0.3-2.7,15.9,2.7,20.4,0.3c4.5-2.5-16.9-5.4-24-18.2c-7.1-12.8,4,1.4,23.6,4
	c19.6,2.6-31.4-16.3-41.8-26.6C1240.9,406.5,993,414.1,993,414.1z"/>
<path class="st0" d="M876.6,819.5c-4.4,8.5-29.7,54.7-37.9,59.6c-8.3,4.9,41.8-36.1,46.5-41.8c4.6-5.7-11.8,44.6-23.2,51.4
	c-11.4,6.7,15.2-10.3,18.3-17.5c3.1-7.2,3.9,20.6,8.5,24.3c4.6,3.6-7.2,34.3-9.3,35.1c-2.1,0.8,16.5-27.6,18.6-32.3
	s1.8,11.9,3.9,14.7c2.1,2.8,6.5,13.2,7.7,17.6c1.3,4.4-20.3,20.7-25.1,23.3c-4.8,2.6,22.9-10,27.1-13.5c4.2-3.5,5.5,1.9,1.5,4.5
	s-19.7,22.5-16.5,20.1c3.3-2.4,18.5-20.6,22.4-17.9c3.9,2.7,2.4,29.1,5.8,36.2s2.5,2.6,3.8-7.6s2.9-4.5,2.3,12.5
	c-0.6,17-2.5,24.4-5.3,26.7c-2.8,2.3,0.2,0.6,3.6-1.7c3.4-2.3,9.9-37.3,12.5-35c2.6,2.2,3.5,6.9,3,10.5c-0.5,3.6,3.1,10.3,5.2,19.2
	c2.1,8.9,5.6,20.4,4.3,4.9s-4-54.5-0.3-46c3.7,8.5,8.4,25.7,11.2,32.5c2.8,6.8,43.8,56.3,59.7,65.6s240.8,6.6,246.2,2.3
	c5.4-4.3,39.1-27.1,46.8-32.1c7.7-5,13.9-3.5,19.4-5.8c5.4-2.3,15.6-1.5,18.5-7.7c2.8-6.2,2.2-201.5,0-201.8
	S876.6,819.5,876.6,819.5z"/>
</svg>
