<?xml version="1.0" encoding="utf-8"?>
<!-- Generator: Adobe Illustrator 24.1.2, SVG Export Plug-In . SVG Version: 6.00 Build 0)  -->
<svg version="1.1" xmlns="http://www.w3.org/2000/svg" xmlns:xlink="http://www.w3.org/1999/xlink" x="0px" y="0px"
	 viewBox="0 0 1920 1080" style="enable-background:new 0 0 1920 1080;" xml:space="preserve">
<style type="text/css">
	.st0{fill:#FFFFFF;stroke:#000000;stroke-miterlimit:10;}
</style>
<g id="Layer_2">
	<rect class="st0" width="1920" height="1080"/>
	<path class="st0" d="M128.1,559.32c88.69-129.01,376.82-182.79,593.37-88.46c32.96,14.36,64.26,32.15,92.95,53.63
		c29.59,22.15,64.35,40.55,102.34,55.36c240.88,93.9,611.8,43.53,618.82-109.94l-473.81-182.32c0,0-367.32,252.76-229.08,398.67
		c17.99,18.99,44.55,36.17,81.59,50.75c321.68,126.58,537.68,375.1,515.61,0c-22.06-375.1,203.23-336.77-53.42-492.39
		s-356.52-152.13-609.68-24.39S390.55,465.26,449.77,640.61s104.52,94.06,426.19,177.68s385.55,135.87,428.52-68.52
		s281.03-109.16-24.39-332.13c-48.18-35.18-88.39-68.01-122.52-97.87C975.34,160.34,966.14,85.56,839.97,191.19
		c-149.81,125.42-154.45,54.58-180,192.77c-25.55,138.19-176.52,54.58-33.68,192.77s123.1,155.61,265.94,132.39
		c4.29-0.7,8.47-1.3,12.55-1.81c131.51-16.51,151.85,59.76,210.42-56.25c60.39-119.61,32.52-47.61,66.19-157.94
		c33.68-110.32-134.71-156.77,92.9-140.52c227.61,16.26,209.03-62.71,281.03,45.29s123.1,80.13,104.52,184.65
		c-18.58,104.52,24.39,92.9-85.94,161.42c-110.32,68.52-16.26,75.48-147.48,72c-131.23-3.48-199.74,18.58-279.87-56.9
		s-105.68-56.9-145.16-161.42s3.48-134.71-111.48-260.13s76.65-130.06-203.23-137.03S410.29,76.23,304.61,214.42
		S-7.77,233,174.55,478.03s27.87,235.74,247.35,282.19c219.48,46.45,222.97,96.39,355.35,8.13s37.16-126.58,242.71-176.52
		s312.39-109.16,350.71-4.65c38.32,104.52,197.42,128.9,6.97,189.29c-71.19,22.57-116.26,49.85-153.28,69.7
		c-62.01,33.26-101.43,45.68-203.24-19.77c-127.5-81.96-139.3-223.92-202.86-312.73c-17.49-24.44-38.9-44.85-67.72-58.89
		c-133.55-65.03-180-166.06-242.71-47.61s-278.71,55.74-36,174.19c44.93,21.93,79.2,43.38,105.93,63.13
		c117.62,86.9,89.12,140.71,180.91,56.49c17.01-15.6,29.33-27.99,38.44-38.1c51.26-56.86,1.11-41.76,112.52-122.4
		c100.3-72.6-4.96-173.15,110.44-165.18c35.59,2.46,92.15,15.23,182.21,42.33c382.06,114.97,610.84-44.13,421.55,173.03
		s-103.35,296.13-314.71,270.58S1049,942.55,990.94,728.87s-22.06-212.52-90.58-307.74c-8.07-11.22-14.32-21.96-19.32-32.13
		c-35.69-72.72-7.14-116.75-120.3-103.68c-5.39,0.62-11.1,1.38-17.16,2.26c-80.23,11.73-128.97,5.74-160.35,15.86
		c-27.67,8.92-41.83,30.36-52.17,87.5C509,512.87,287.19,563.97,549.65,562.81c262.45-1.16,180,48.77,335.61-44.13
		c63.42-37.86,193.21-95.79,326.21-140.84c193.34-65.48,393.49-103.74,406.56-13.61c22.06,152.13,257.81,15.1-65.03,218.32
		s-260.13,292.65-442.45,199.74S908.48,646.42,855.06,498.94s-18.58-222.97-140.52-243.87s-123.1-205.55-202.06,15.1
		c-3.96,11.07-7.88,21.4-11.73,31.07c-35.88,89.95-66.74,122.03-83.63,146.04c-17.49,24.86-19.99,41.07,2.46,103.92
		C466.03,681.26,375.45,740.48,593.77,737s184.65,113.81,282.19-51.1c31.12-52.61,49.12-134.18,67.96-216.39
		c40.2-175.47,84.19-353.84,267.66-259.74c269.42,138.19,356.52-19.74,361.16,249.68s142.84,222.97-59.23,368.13
		S1373,1090.03,1186.03,977.39c-185.42-111.71-154.15,35.84-224.26-168.99c-0.58-1.71-1.18-3.44-1.78-5.2
		c-72.42-212.52-88.68-284.52-110.74-373.94c-8.42-34.12-46.1-65.37-93.15-81.74c-76.25-26.53-177.14-13.99-218.08,88.71
		c-66.19,166.06-197.42,153.29-82.45,245.03c12.25,9.78,24.75,18.79,37.31,27.08c105.31,69.58,214.69,89.05,214.69,89.05
		l58.12-128.24l15.04-33.18c0,0,299.61-529.55,349.55-261.29c18.49,99.35,68.53,168.12,106.09,218.58
		c63.86,85.77,91.67,118.62-132.8,158.84c-8.83,1.58-17.56,3.19-26.18,4.83c-339.29,64.33-513.72,163.88-555.63-97.73
		c-42.97-268.26,89.42-651.48,380.9-456.39s600.39,42.97,378.58,342.58c-115.68,156.25-118.91,246.81-138.68,293.41
		c-18.14,42.76-50.19,48.52-195.77,34.07c-11.84-1.18-23.46-2.3-34.85-3.4c-264.26-25.41-405.87-33.21-437.69-208.29
		c-2.03-11.19-3.62-23.06-4.76-35.66c-19.74-218.32-253.16-328.65,59.23-343.74s212.52-176.52,399.48,5.81
		s239.23,76.65,202.06,240.39c-37.16,163.74,202.06,154.45-161.42,243.87c-160.09,39.38-266.79,88.23-341.93,112.2
		c-95.47,30.46-139.99,20.79-178.33-99.43c-4.84-15.18-8.46-30.84-10.9-46.83c-32.16-210.15,137.38-476.11,365.09-450.21
		c245.03,27.87,588.77,233.42,349.55,409.94s-91.74,164.9-339.1,192.77s-66.19,245.03-326.32,11.61S66.55,785.77,222.16,562.81
		c136.06-194.96,42.18-196.36,199.64-255.74c22.63-8.53,50.44-18.26,84.87-29.93c274.06-92.9,397.16-286.84,492.39-25.55
		s281.03,240.39,73.16,375.1S839.97,811.32,651.84,737c-6.18-2.44-12.25-4.92-18.2-7.43c-175.13-73.74-250.82-170.7-273.28-47.15
		c-23.23,127.74-303.1,102.19,9.29,192.77s225.29,90.58,428.52,81.29c203.23-9.29,227.61,29.03,363.48-55.74
		s247.35-72,176.52-188.13c-70.84-116.13-116.13-276.39-262.45-200.32s-22.06-113.23-211.35,122.52
		c-48.77,60.73-114.1,103.58-183.2,130.78c-199.12,78.36-429.5,26.71-384.67-101.75c60.39-173.03,91.74-416.9,275.23-262.45
		s761.81,152.13,637.55,110.9C1085,471.06-10.1,561.65,356.87,519.84s185.81-152.13,487.74,32.52s189.29-430.84,42.97-182.32
		s-171.87,444.77-277.55,375.1s-478.45-124.26-25.55-189.29s1203.1-184.65,642.19,31.35s192.77-314.71-6.97-275.23
		s-257.81,25.55-396-12.77S-386.35,673.13,313.9,685.9c700.26,12.77,1126.45-321.68,865.16-25.55s-67.35-440.13-314.71-256.65
		S-113.45,777.65,355.71,737s551.61,70.84,689.81-10.45s689.81-131.23,46.45-131.23c-8.62,0-17.14-0.09-25.57-0.26
		c-620.43-12.54-716.66-478.34-643.34-147.23c74.32,335.61-211.35,377.42-55.74,224.13s111.48-221.81,371.61-205.55
		c254.03,15.88,920.04-383.55,321.7,15.71c-14.37,9.59-29.46,19.63-45.31,30.16c-675.87,448.84-864,655.55-707.23,402.39
		s-144-544.65,239.23-320.52s-98.71-183.48,314.71-63.87s1139.23-32.52,408.77,74.32s-1138.06-59.23-752.52-69.68
		S646.03-84.03,756.35,215.58S941,834.55,780.74,737S226.81,543.06,625.13,519.84c398.32-23.23,703.74,75.48,703.74,75.48
		S1011.84,12.35,850.42,321.26s-45.29,311.23-178.84,392.52s-618.97-29.03-196.26-73.16s1003.35-29.03,608.52,48.77
		S625.13,799.71,736.61,807.84s-27.87-25.55,110.32,41.81s-74.32,169.55-119.61,38.32c-45.29-131.23,732.77-81.29,413.42-161.42
		s-125.03-155.06-347.23-31.35s-272.9-171.87-20.9-81.29s661.43,106.84,949.1,138.19c287.67,31.35-327.81-111.48-327.81-111.48"/>
</g>
<g id="Layer_1">
</g>
</svg>
