<?xml version="1.0" encoding="utf-8"?>
<!-- Generator: Adobe Illustrator 24.1.2, SVG Export Plug-In . SVG Version: 6.00 Build 0)  -->
<svg version="1.1" id="Layer_1" xmlns="http://www.w3.org/2000/svg" xmlns:xlink="http://www.w3.org/1999/xlink" x="0px" y="0px"
	 viewBox="0 0 1920 1080" style="enable-background:new 0 0 1920 1080;" xml:space="preserve">
<style type="text/css">
	.st0{fill:none;stroke:#000000;stroke-miterlimit:10;}
</style>
<path class="st0" d="M995.9,547.1c1.5-1.8,0.7-0.7,2.6-2.8s7.9-7.2,8.5-9.4s1.2-1.5,1.7-7.4s0.3-9.8,0.3-13.2c0-3.4-2.5-3.4-2.3-5.9
	c0.1-2.6,3.2-6.3,3.6-8.9c0.4-2.6,0-14.3-0.4-18.8c-0.4-4.5-0.1-16.1,0-18.6c0.1-3.1-2.2-15.2-8.4-22.6c-6.2-7.4-20-18.2-33.2-17.7
	c-13.2,0.5-13.2,0.5-13.2,0.5s-4,0.1-7.6,0.6c-3.6,0.5-9.4-0.4-20.1,4c-10.7,4.4-13.7,5.7-20.5,10.3c-8.5,5.8-8,5.5-15.5,15.9
	c-7.5,10.3-10.1,26.4-10.1,31c0.1,7,1.2,16.5,3,22.5s2.7,7.1,3.2,13.5c0.5,6.5,0.5,6.5,0.5,6.5s0.5,6.1,3.5,10.2
	c3,4.1,5.9,9.2,7.1,10.7c1.2,1.5,5.7,7.5,5.8,8.5c0.1,1,0.6,0.6-0.8,1.5c-1.4,0.9-14.7,5.8-16.9,7.4s-8,2.8-10.3,3.5
	c-2.3,0.6-4.5,5.3-8.1,6.2c-3.6,0.9-6.7,3.9-7.9,4.5c-1.2,0.6-1.8,60.8-0.9,61.4c0.9,0.6,173,0.5,174.5,0c1.4-0.5,1.4-67.5,0.9-68.1
	c0,0-5-1.4-6.1-1.4s-1,0-1,0s-23-12.4-25.4-13.9c-2.5-1.5-3.6-3.7-6.7-4.6"/>
<path class="st0" d="M892.4,525.9c-1.6,2.1,5.3,5.6,9.9,5.2c4.6-0.4,7-2.2,8.6-3.4c1.9-1.4-3.2-5.3-5.9-5.4
	c-2.7-0.1-7.5-0.1-9.3,0.9C893.9,524.2,893.4,524.5,892.4,525.9z"/>
<path class="st0" d="M896.6,522.8c0.9,1.1-1.1-0.9,0,0.4c1.1,1.4,1.9,1.3,3.2,1.6c1.4,0.3,2.2,0.1,2.9-1.1c1-1.6-0.4-1.5-0.4-1.5"/>
<path class="st0" d="M943.9,529.9c-1.4,1.2,4.4,5.7,7.6,5.8s10.7-2.1,12.3-2.8c1.5-0.7-1.6-3.5-3.3-4.1c-1.7-0.6-7.5-3.5-11.3-1.9
	C945.4,528.6,943.9,529.9,943.9,529.9z"/>
<path class="st0" d="M950.3,526.9c0.4,1.5,1.4,2.1,2.5,2.3s2.5,0.7,3.4-0.2c0.9-1,1.1-1.4,1.1-1.4"/>
<path class="st0" d="M904.4,555.9c2.4,2.6,5.6,6.4,7,9c1.4,2.6,1.4,8,1.6,12.6c0.2,4.5,1.5,8.5,3.4,11.2s4,6.4,6.1,9.6
	c1.9,2.9,2.5,7,11.1,7c0,0,11.8,1.7,15.3-1.7s8.7-8.5,9.9-10.3c1.2-1.7,9.2-10.3,11-12c1.8-1.7,7.5-10,8.9-12.7
	c1.4-2.7,4.3-7,4.6-9.7s0.8-6.7,1.8-8.8s0.9-2,1.5-2.4c0.6-0.3,8,0.9,8.6,0.1c0.6-0.8,0.6-0.8,0.6-0.8"/>
<path class="st0" d="M891.3,504.6c2,0.6,3,1.8,6.7,2.5c3.7,0.6,8.6,0.5,10.8,0.6s4,2.7-0.5,3.5c-4.5,0.8-10.8,0.6-12,0
	c-1.2-0.6-3.7-2.6-5-3.9C890,506,890.1,504.2,891.3,504.6z"/>
<path class="st0" d="M945.9,510c2.6-1.6,6.6-1.6,9.3-1.9s4.2-1.2,5.3,0s2.2,2.7,0,3.6s-8.4,1.7-10.7,1.1
	C947.6,512.4,943.3,511.6,945.9,510z"/>
<path class="st0" d="M922.8,576.6c-1.5,1.2,0.9,3.3,1.1,5s-0.4,5.2,2.2,5.7c2.6,0.5,2.9,0.1,6.3,0.3c0,0,2.7,0.4,4.6-1.6
	c1.1-1.2,0.9-1.8,1.8-2.6s1.2-3.2,0.2-4c-1.2-1-2.6-3-4.6-3.1c-2-0.1-8-0.4-9.3,0C923.6,576.9,923.3,576.3,922.8,576.6z"/>
<path class="st0" d="M1007.1,510.3c-0.6,0.1-6.1,3.6-8.8,9.2c-2.7,5.5-5.8-0.9-5.8-4.3c0-3.4-3.4-1-3.9-4.1
	c-0.5-3.1-6.8-7.6-7.4-10.1s-0.1-7.4-3.4-6.5c-3.2,0.9-10.8,2.2-12.6-1.2c-1.8-3.4-6.5-5.6-6.5-5.6s-3.8-1.3-6.5,0.7
	c-2.6,2-3.6,1.2-5.9-0.1c-2.3-1.3-5.3,0.2-5.8,2.4c0,0,0,0-0.9,4c-0.9,4-3.5,1.4-3.9-2.7c-0.4-4.1-1.9-3.5-4.2-4.9
	c-2.2-1.4-9.9,0.5-12.2,1.2c-2.3,0.6-4.9,9.7-5.8,8.4c-0.9-1.3-2.8-11.7-2.5-14.8s-3.1-1.3-5,0.8s-9.3,10.7-8.9,8.6s-1.3-5.8-1-10.5
	s0.2-4.3-1.4-6.5c-1.5-2.2-7.7,6.6-13.5,12"/>
<path class="st0" d="M906,557.7c0.3,0.8,4.8,8.6,4.3,12.7s1.1,13.4,2.8,18c1.8,4.9,3.3,8.6,6.8,12.2c3.5,3.6,3.5,3.6,3.5,3.6
	s9.1,6.2,13.6,8.1c4.5,1.9,8.6,4.5,15.5,1.3s16.5-8.7,19.6-12.1c3.1-3.4,6.5-5.4,10.9-12.3c4.5-6.8,8.1-11.1,8.6-15.3
	c0.5-4.3,2.7-5.6,1.2-9.6c-1.5-4-1-4.7-3.6-8c-2.6-3.3-7.5-4.1-2-4.1s6.9-0.1,8.7,0.3"/>
<path class="st0" d="M934.4,538.3c0.6,6.3-1.3,8.4,2.1,11.5c3.4,3.1,3.9,9.7,2.1,11.6s-3.2,3.2-4.1,1.3c-0.9-1.9-3.2-2.7-3.2-0.8
	c0,1.9,0,2-2.1,1.9s-3.1,0-3.1-2.3s-1.8-1.8-2.3-0.8c-0.5,1-0.8,2.7-2.5,0.9s-1.1-3-0.7-5c0,0,1.5-5.3,0.3-5.6s2.2-2.5,1-1.8"/>
</svg>
