<?xml version="1.0" encoding="utf-8"?>
<!-- Generator: Adobe Illustrator 24.1.2, SVG Export Plug-In . SVG Version: 6.00 Build 0)  -->
<svg version="1.1" id="Layer_1" xmlns="http://www.w3.org/2000/svg" xmlns:xlink="http://www.w3.org/1999/xlink" x="0px" y="0px"
	 viewBox="0 0 1920 1080" style="enable-background:new 0 0 1920 1080;" xml:space="preserve">
<style type="text/css">
	.st0{fill:none;stroke:#000000;stroke-width:3;stroke-miterlimit:10;}
</style>
<path class="st0" d="M859.1,446.6c-2.5-4.3,4.4-3.9,11.9-6.7c7.5-2.8,8.5-10.1,15.7-9.8c7.2,0.3,8.8-2.3,16.8,0s15.5-1.4,22.5-1
	c7,0.5-1,2.3,11.4,2.5c12.4,0.3,16.8-1.5,25-1c8.3,0.5,3.9,3.6,16.5,0.5c12.6-3.1,15.2,0,21.4,1.5c6.2,1.5,19.6,5.9,24,6.5
	c4.4,0.5,6.5,3.4,13.7,7.5c7.2,4.1,8.3,0.3,12.9,1.8c4.6,1.5-0.1,4.1,4.9,7.5c4.6,3.2,3.6,3.2,13.2,2.8c11.9-0.5,7.6,9.2-11.6,9.8
	c-9.5,0.3-44.1,4.9-78.7,2.6c-34.6-2.3-93.7-11.4-97.5-13.2C877.2,456.1,865.3,457.2,859.1,446.6z"/>
</svg>
