<?xml version="1.0" encoding="utf-8"?>
<!-- Generator: Adobe Illustrator 24.1.2, SVG Export Plug-In . SVG Version: 6.00 Build 0)  -->
<svg version="1.1" id="Layer_1" xmlns="http://www.w3.org/2000/svg" xmlns:xlink="http://www.w3.org/1999/xlink" x="0px" y="0px"
	 viewBox="0 0 1920 1080" style="enable-background:new 0 0 1920 1080;" xml:space="preserve">
<style type="text/css">
	.st0{opacity:0.43;fill:#FFFFFF;stroke:#000000;stroke-width:3;stroke-miterlimit:10;}
	.st1{fill:none;stroke:#000000;stroke-width:3;stroke-miterlimit:10;}
	.st2{fill:#FFFFFF;stroke:#000000;stroke-width:3;stroke-miterlimit:10;}
</style>
<image style="display:none;overflow:visible;" width="1920" height="1080" xlink:href="G:\pictures\Blebder\untitled3.png"  transform="matrix(1 0 0 1 34.8387 0)">
</image>
<path class="st0" d="M626.8,496.7c-3.1,16.1-4.1,32,8.8,42.3c12.9,10.3,9.5,13.2,9.8,19.6c0.3,6.5,2.8,23.2,9.8,34.3
	c7,11.1,13.3,26.9,31.7,39c18.6,12.1,12.2,9.9,24.5,19.4c0,0,23.7,17,33,22.7c9.3,5.7,20.9,9,29.9,13.7c9,4.6,15,2.1,24,3.6
	c9,1.5,23.7,10.6,33.3,10.6s24.8,0,30.5,3.4c5.7,3.4,10.3,3.1,18.1,3.1s16,1.8,26.1,1.5s12.9-1.8,23.2-1c10.3,0.8,5.4-0.8,33.8-1.3
	c28.4-0.5,28.1-1.2,37.4,0c10.3,1.4,11.3-0.8,18.4-1c7.7-0.2,22.6,1.2,31.2,0.5c8.5-0.8,13.4-1,20.1-1c6.7,0,7-1.3,16.3-3.1
	c9.3-1.8,28.4-6.7,37.4-9.3s33.5-15,38.7-15c5.2,0,21.9-12.9,30.2-16.3c8.3-3.4,13.7-4.4,17.8-11.4c4.1-7,16-11.4,23-17
	c7-5.7,12.9-9.5,15.5-14.2c2.6-4.6,8-8.2,11.1-12.1c3.4-4.4,4.4-3.1,8.3-9s4.4-9.5,3.9-13.9c-0.5-4.4,1.5-4.6,3.4-8.3
	s1.3-11.4,1.8-17c0.5-5.7,6.7-8.5,7.7-13.9c1-5.4-2.3-4.4,0-10.8c2.3-6.5,2.8-1.8,3.6-10.3s-0.8-8,0-13.4c0.8-5.4,1.3-5.9,1.8-18.8
	s-1.8-27.9-5.2-35.6c-3.4-7.7-33-50.8-101.4-79.2c-68.4-28.4-125.9-42.6-202.3-46.7c-76.4-4.1-135,11.9-155.4,13.9
	c-20.4,2.1-37.4,2.6-56.3,10.6c-18.8,8-52.4,21.4-65.3,27.6c-12.9,6.2-38.5,24.8-48.3,38.7S628.2,489.5,626.8,496.7z"/>
<path class="st1" d="M644.3,547.1c0,0,2.6,6.3,22.8,6.3c6.7,0,16,10.3,22.2,13.4c6.2,3.1,13.9,5.8,24.8,12
	c10.8,6.2,33.3,11.2,41.8,11.6c8.5,0.4,32.9,10.1,44.9,19.4s17.4,12.8,39.9,13.2c22.5,0.4,27.1,3.5,67.4-9.7
	c40.3-13.2,61.5-18.2,81.3-18.6c19.7-0.4,41.8,2.7,52.6,2.7c10.8,0,31-3.5,55,0.8s37.9,8.9,61.5,10.8c23.6,1.9,31,1.9,53-19.7
	c22.1-21.7,42.2-39.6,46.5-46.8c4.3-7.2,5.4-9.3,12-12c6.6-2.7,9.6-9,11.6-12.2s7.5-4.4,7.5-6.4"/>
<path class="st2" d="M646.8,547.4"/>
<path class="st1" d="M859.1,446.6c-2.5-4.3,4.4-3.9,11.9-6.7c7.5-2.8,8.5-10.1,15.7-9.8c7.2,0.3,8.8-2.3,16.8,0s15.5-1.4,22.5-1
	c7,0.5-1,2.3,11.4,2.5c12.4,0.3,16.8-1.5,25-1c8.3,0.5,3.9,3.6,16.5,0.5c12.6-3.1,15.2,0,21.4,1.5c6.2,1.5,19.6,5.9,24,6.5
	c4.4,0.5,6.5,3.4,13.7,7.5c7.2,4.1,8.3,0.3,12.9,1.8c4.6,1.5-0.1,4.1,4.9,7.5c4.6,3.2,3.6,3.2,13.2,2.8c11.9-0.5,7.6,9.2-11.6,9.8
	c-9.5,0.3-44.1,4.9-78.7,2.6c-34.6-2.3-93.7-11.4-97.5-13.2C877.2,456.1,865.3,457.2,859.1,446.6z"/>
<path class="st1" d="M735.2,447.1c-3.6,3.9-7.7,10.1-9.3,16.5"/>
<path class="st1" d="M805.2,459c4.6-1.5,14.7-4.1,23.2-3.6"/>
<path class="st1" d="M816.8,528.4c3.6,6.7,9,14.2,11.6,20.1"/>
<path class="st1" d="M903.7,518.3c0,7.8-0.5,13.5,4.9,20.2"/>
<path class="st1" d="M989.7,516.5c-7.5,2.1-5.7,4.6-18.3,8"/>
<path class="st1" d="M1006.7,481.7c6.2,2.6,7.7,4.4,17,9.8"/>
<path class="st1" d="M928.3,476.8c-15-2.3-8.5-2.3-19.6,0"/>
<path class="st2" d="M1094.7,486.6c6.2,4.1,13.4,10.8,14.7,16"/>
<path class="st2" d="M1118.2,466.2c6.5,1.3,18.8,8,22.5,10.6"/>
<path class="st2" d="M1161.8,459c4.6-2.6,8.5-5.2,12.6-5.2"/>
<path class="st2" d="M1196.1,428c7.7,1.3,17,3.9,22.5,6.2"/>
<path class="st2" d="M1228.9,475c2.6,1.5,5.9,13.9,7.2,16.5"/>
<path class="st2" d="M1180.1,494.6c5.2,2.1,12.1,6.7,20.6,11.4"/>
<path class="st2" d="M1057.8,523c3.1,4.9,4.4,13.7,10.1,18.8"/>
<path class="st2" d="M1042.7,559c7.7,3.6,13.9,13.7,20.1,16.8"/>
<path class="st2" d="M831.5,516.5c8-5.2,20.9-8.8,23.5-8.5"/>
<path class="st2" d="M779.4,429c6.2,1,14.5,3.9,17.8,5.9"/>
<path class="st2" d="M722.6,424.4c12.9,1.3,9.8,1,15.5,3.4"/>
<path class="st2" d="M683.6,436.8c3.1-2.8,13.7-7,18.8-6.2"/>
<path class="st2" d="M707.1,402.7c2.1-1.3,11.1-4.9,15.5-5.2"/>
<path class="st2" d="M741.2,382.1c3.1-2.8,8.3-7.5,12.4-7.7"/>
<path class="st2" d="M771.6,367.4c4.6,0.5,15,3.9,18.8,4.9"/>
<path class="st2" d="M801.8,364.3c3.6,1.3,7,5.2,9,5.5"/>
<path class="st2" d="M847.2,384.4c6.2,2.6,8.5,3.4,11.3,7.2"/>
<path class="st2" d="M824.5,405c0.8,3.4,2.8,7.5,3.9,13.9"/>
<path class="st2" d="M938.6,388c-2.8,4.1-5.9,11.6-5.4,17"/>
<path class="st2" d="M940.1,369.8c5.4,1.2,9.8-0.9,15.2,0"/>
<path class="st2" d="M963.6,361.7c5.5-0.5,6.8-3.6,14-2.1"/>
<path class="st2" d="M1028.6,365.8c-4.1,4.9-11.6,7.2-13.4,12.4"/>
<path class="st2" d="M1021.9,351.6c3.9,0.8,9.5,1.8,15.2,2.8"/>
<path class="st2" d="M923.9,348.8c8.5-8.3,10.3-6.2,14.7-5.7"/>
<path class="st2" d="M1103.5,367c4.1-1.2,8-1.1,13.2,0"/>
<path class="st2" d="M1083.4,378.2c1,2.1,1,8.8,0,11.6"/>
<path class="st2" d="M1039.2,391.6c-4.6,5.4-5.2,10.6-6.5,13.4"/>
<path class="st2" d="M1125.9,414.1c6.2-5.4,14.7-13.4,20.1-13.9"/>
<path class="st2" d="M1133.7,389.8c5.2-3.6,7.2-8,12.4-7.7"/>
<path class="st2" d="M1183.5,402.7c2.6-0.5,17.8-1.5,20.4,0"/>
<path class="st2" d="M1224,424.4c6.5-0.5,20.4,2.6,22.2,3.4"/>
</svg>
